<svg xmlns="http://www.w3.org/2000/svg" viewBox="0 0 128 128">
    <path class="ink" d="M106.3 72.6 C108.6 73.9 118.0 79.2 120.4 80.5" fill="none" stroke-width="5" stroke-linecap="round" stroke-linejoin="round"/>
    <path class="ink" d="M97.2 92.4 C98.5 94.8 104.0 104.4 105.4 106.8" fill="none" stroke-width="5" stroke-linecap="round" stroke-linejoin="round"/>
    <path class="ink" d="M77.1 106.0 C77.2 108.5 77.2 118.3 77.2 120.8" fill="none" stroke-width="5" stroke-linecap="round" stroke-linejoin="round"/>
    <path class="ink" d="M56.4 107.0 C55.1 109.2 49.8 118.1 48.5 120.3" fill="none" stroke-width="5" stroke-linecap="round" stroke-linejoin="round"/>
    <path class="ink" d="M36.0 97.9 C33.8 98.8 25.0 102.6 22.8 103.6" fill="none" stroke-width="5" stroke-linecap="round" stroke-linejoin="round"/>
    <path class="ink" d="M23.2 77.6 C20.7 77.9 10.9 78.8 8.4 79.1" fill="none" stroke-width="5" stroke-linecap="round" stroke-linejoin="round"/>
    <path class="ink" d="M21.4 56.2 C19.0 55.0 9.5 50.2 7.1 49.0" fill="none" stroke-width="5" stroke-linecap="round" stroke-linejoin="round"/>
    <path class="ink" d="M30.4 35.1 C29.5 33.0 25.8 24.7 24.9 22.6" fill="none" stroke-width="5" stroke-linecap="round" stroke-linejoin="round"/>
    <path class="ink" d="M49.1 23.0 C49.4 20.4 50.6 10.0 50.9 7.4" fill="none" stroke-width="5" stroke-linecap="round" stroke-linejoin="round"/>
    <path class="ink" d="M72.2 20.8 C73.5 18.5 78.8 9.5 80.1 7.3" fill="none" stroke-width="5" stroke-linecap="round" stroke-linejoin="round"/>
    <path class="ink" d="M94.2 30.8 C96.2 29.5 104.5 24.4 106.5 23.1" fill="none" stroke-width="5" stroke-linecap="round" stroke-linejoin="round"/>
    <path class="ink" d="M106.5 49.3 C109.0 49.4 118.9 49.9 121.3 50.0" fill="none" stroke-width="5" stroke-linecap="round" stroke-linejoin="round"/>
    <path d="M101.8 66.0 C101.5 68.8 101.3 72.3 100.7 74.9 C100.1 77.5 99.0 79.6 98.2 81.8 C97.4 84.0 97.2 86.0 95.8 88.2 C94.5 90.3 92.5 93.0 90.3 94.8 C88.0 96.6 84.8 97.8 82.3 98.8 C79.7 99.8 77.1 100.2 74.8 100.7 C72.4 101.2 70.4 101.5 67.9 101.7 C65.4 102.0 62.9 102.7 59.8 102.1 C56.8 101.4 52.2 98.9 49.6 97.8 C46.9 96.6 46.0 96.5 44.0 95.0 C42.0 93.5 39.2 90.9 37.5 88.8 C35.7 86.7 34.5 84.8 33.7 82.4 C32.9 80.1 33.3 77.4 32.6 74.7 C31.9 72.1 29.9 69.4 29.6 66.7 C29.4 64.1 30.5 61.5 31.2 58.9 C32.0 56.4 32.6 53.9 34.0 51.5 C35.4 49.1 37.9 46.6 39.7 44.5 C41.5 42.3 43.1 40.7 45.0 38.7 C46.9 36.8 48.7 34.0 51.1 32.7 C53.6 31.3 57.5 31.3 59.9 30.8 C62.2 30.3 62.7 29.9 65.1 29.8 C67.5 29.7 71.2 29.6 74.3 30.1 C77.3 30.5 80.8 31.2 83.4 32.5 C86.0 33.8 88.4 36.2 90.1 38.0 C91.8 39.8 92.3 41.3 93.7 43.2 C95.2 45.0 97.4 46.8 98.8 49.3 C100.2 51.9 101.8 55.6 102.3 58.4 C102.8 61.2 102.1 63.3 101.8 66.0 Z" fill="#efb943"/>
    <path class="ink" d="M99.0 65.0 C99.1 67.5 100.3 68.9 99.8 71.3 C99.4 73.7 97.6 76.8 96.4 79.5 C95.2 82.1 94.4 85.4 92.6 87.3 C90.7 89.1 87.3 89.3 85.3 90.8 C83.3 92.3 82.7 95.1 80.6 96.2 C78.5 97.4 75.5 97.0 72.7 97.7 C70.0 98.4 66.8 100.2 63.8 100.6 C60.9 101.1 57.6 101.3 55.2 100.3 C52.8 99.4 52.0 96.5 49.5 95.1 C47.0 93.8 42.3 93.8 40.2 92.3 C38.2 90.8 38.7 88.3 37.1 86.1 C35.5 84.0 32.4 81.9 30.8 79.4 C29.2 76.9 28.1 73.8 27.6 71.2 C27.1 68.7 27.7 66.7 27.8 64.0 C27.9 61.3 27.7 57.9 28.2 55.2 C28.6 52.6 29.6 50.8 30.8 48.3 C32.0 45.8 33.3 42.3 35.3 40.2 C37.2 38.2 40.2 37.6 42.5 36.0 C44.8 34.4 46.3 31.7 48.8 30.7 C51.3 29.7 55.0 30.4 57.4 29.9 C59.7 29.4 60.4 27.6 62.9 27.5 C65.5 27.5 69.6 28.9 72.6 29.5 C75.6 30.1 78.4 30.2 80.8 31.3 C83.3 32.5 85.6 34.6 87.4 36.3 C89.2 38.1 89.9 39.6 91.6 41.8 C93.3 44.0 96.3 46.9 97.5 49.3 C98.8 51.8 98.9 53.6 99.1 56.2 C99.4 58.8 98.9 62.5 99.0 65.0 Z" fill="none" stroke-width="4.5" stroke-linejoin="round" stroke-linecap="round"/>
    <path d="M66.2 67.4 C65.9 67.7 65.4 69.0 64.7 69.6 C63.9 70.1 62.8 70.7 61.7 70.8 C60.5 70.9 59.1 70.8 57.8 70.3 C56.6 69.7 55.2 68.7 54.2 67.5 C53.2 66.2 52.4 64.5 52.1 62.7 C51.8 60.9 51.8 58.7 52.5 56.8 C53.1 54.9 54.3 52.7 55.9 51.1 C57.5 49.6 59.7 48.1 62.1 47.3 C64.5 46.6 67.4 46.2 70.1 46.6 C72.8 47.1 75.8 48.2 78.2 49.9 C80.6 51.6 82.9 54.1 84.4 56.9 C85.9 59.7 87.0 63.3 87.0 66.7 C87.1 70.1 86.4 74.0 84.9 77.3 C83.4 80.6 80.9 84.0 77.9 86.5 C74.9 88.9 70.9 90.9 66.9 91.8 C62.9 92.7 56.1 91.8 54.0 91.8" fill="none" stroke="#f08a3a" stroke-width="5" stroke-linecap="round"/>
    <style>.ink{stroke:#4a3222}@media (prefers-color-scheme: dark){.ink{stroke:#f7ecd6}}</style>
</svg>